# xmcd
#
# Track frame offsets:
#	150
#	21116
#	38516
#	53291
#	68972
#	83605
#	100704
#	117656
#	133634
#	149767
#
# Disc length: 2197 seconds
#
# Revision: 1
# Processed by: cddbd v1.5.1PL0 Copyright (c) Steve Scherf et al.
# Submitted via: EasyCDDAExtractor 7.1.0.1
#
DISCID=8008930a
DTITLE=Lucky Valdano - 1.
DYEAR=1998
DGENRE=Blues
TTITLE0=Hannah
TTITLE1=The Rain Is Falling
TTITLE2=Fool For Loving You
TTITLE3=Twilight Zone
TTITLE4=Have I Told You Lately
TTITLE5=Raindrops
TTITLE6=Stars In My Eyes
TTITLE7=Annabelle
TTITLE8=Sleep Walkin'
TTITLE9=Memories Are Made Of This
EXTD=
EXTT0=
EXTT1=
EXTT2=
EXTT3=
EXTT4=
EXTT5=
EXTT6=
EXTT7=
EXTT8=
EXTT9=
PLAYORDER=
